<svg xmlns="http://www.w3.org/2000/svg" width="236" height="236" viewBox="0 0 236 236" version="1.1"><path d="M 196 108.712 C 187.475 111.665, 177.125 115.190, 173 116.545 C 168.875 117.901, 164.600 119.448, 163.500 119.983 C 162.400 120.518, 158.125 122.065, 154 123.422 C 149.875 124.778, 135.925 129.554, 123 134.034 C 110.075 138.514, 95.675 143.484, 91 145.078 C 86.325 146.672, 77.550 149.710, 71.500 151.829 C 65.450 153.948, 52.737 158.335, 43.250 161.579 C 33.763 164.822, 26 167.774, 26 168.140 C 26 168.904, 26.685 169.164, 49.500 177.033 C 58.850 180.258, 73.025 185.191, 81 187.995 C 88.975 190.799, 100 194.608, 105.500 196.460 C 111 198.312, 125.400 203.291, 137.500 207.525 C 149.600 211.759, 161.300 215.814, 163.500 216.536 C 165.700 217.257, 174.700 220.384, 183.500 223.482 C 207.223 231.837, 211.194 233.139, 211.624 232.709 C 211.839 232.494, 211.899 203.299, 211.757 167.831 L 211.500 103.343 196 108.712" stroke="none" fill="#040404" fill-rule="evenodd"/><path d="M 23 69.434 L 23 134.123 26.507 133.566 C 28.435 133.260, 30.798 132.576, 31.757 132.048 C 32.715 131.520, 37.100 129.922, 41.500 128.499 C 45.900 127.075, 50.400 125.519, 51.500 125.040 C 52.600 124.561, 55.975 123.398, 59 122.456 C 62.025 121.513, 66.075 120.107, 68 119.332 C 69.925 118.556, 71.829 117.920, 72.232 117.917 C 72.634 117.915, 74.635 117.215, 76.677 116.362 C 78.720 115.508, 81.090 114.649, 81.945 114.453 C 83.371 114.125, 98.167 109.010, 125 99.568 C 130.775 97.536, 139.100 94.716, 143.500 93.302 C 147.900 91.888, 151.928 90.342, 152.450 89.866 C 152.973 89.390, 154.232 89, 155.250 89 C 156.267 89, 158.366 88.345, 159.915 87.544 C 161.464 86.743, 163.887 85.878, 165.299 85.622 C 166.712 85.366, 169.360 84.520, 171.184 83.743 C 175.834 81.761, 180.979 79.955, 184.500 79.071 C 186.150 78.656, 188.963 77.559, 190.750 76.633 C 192.537 75.707, 194 75.162, 194 75.423 C 194 75.684, 195.675 75.198, 197.723 74.342 C 199.771 73.487, 202.541 72.588, 203.878 72.346 C 207.089 71.763, 210 70.163, 210 68.979 C 210 68.456, 207.967 67.517, 205.483 66.891 C 202.999 66.266, 200.722 65.359, 200.424 64.877 C 200.126 64.395, 198.986 64, 197.891 64 C 196.796 64, 194.634 63.345, 193.085 62.544 C 191.536 61.743, 189.113 60.878, 187.701 60.622 C 186.288 60.366, 183.640 59.520, 181.816 58.743 C 177.644 56.964, 172.382 55.077, 168.500 53.966 C 166.850 53.494, 160.325 51.271, 154 49.025 C 147.675 46.779, 137.325 43.165, 131 40.995 C 124.675 38.824, 114.325 35.229, 108 33.005 C 101.675 30.781, 95.825 28.772, 95 28.541 C 92.797 27.925, 81.822 24.065, 79.500 23.090 C 78.400 22.628, 72.100 20.430, 65.500 18.205 C 52.442 13.803, 50.371 13.081, 38.656 8.836 C 34.342 7.273, 29.055 5.713, 26.906 5.369 L 23 4.744 23 69.434" stroke="none" fill="#1474fc" fill-rule="evenodd"/></svg>