<svg xmlns="http://www.w3.org/2000/svg" width="720" height="174" viewBox="0 0 720 174" version="1.1"><path d="M 262.676 27.452 C 260.572 28.202, 258.721 28.970, 258.561 29.158 C 256.846 31.181, 256 35.052, 256 40.878 C 256 50.666, 258.024 52.991, 267.181 53.726 C 275.415 54.387, 282.278 53.411, 284.981 51.195 C 286.542 49.915, 287.188 47.907, 287.615 43 C 288.401 33.966, 286.638 29.072, 282 27.408 C 277.342 25.737, 267.422 25.759, 262.676 27.452 M 167.436 32.306 C 167.160 33.025, 167.062 58.562, 167.217 89.056 C 167.490 142.547, 167.571 144.621, 169.513 147.926 C 170.625 149.819, 173.493 152.393, 175.920 153.676 C 180.168 155.923, 181.118 156, 204.407 155.994 C 217.783 155.991, 230.143 155.533, 232.192 154.963 C 234.553 154.308, 237.348 152.276, 239.942 149.328 C 243.901 144.831, 244 144.538, 244 137.359 L 244 130 221.147 130 L 198.293 130 197.647 122.349 C 197.291 118.141, 197 98.431, 197 78.549 L 197 42.400 194.350 38.314 C 190.645 32.600, 186.727 31, 176.435 31 C 170.364 31, 167.794 31.373, 167.436 32.306 M 456.468 33.270 C 456.155 34.518, 456.044 54.880, 456.221 78.520 C 456.535 120.377, 456.604 121.681, 458.862 128.413 C 460.137 132.215, 462.993 137.725, 465.207 140.658 C 469.650 146.543, 479.183 153.463, 484.848 154.914 C 486.856 155.429, 490.352 156.334, 492.616 156.925 C 499.250 158.658, 512.809 158.221, 521.590 155.992 C 535.373 152.494, 545.561 143.554, 550.665 130.478 L 553.389 123.500 553.757 77.883 L 554.126 32.266 551.813 31.647 C 548.550 30.773, 526.742 30.877, 525.333 31.773 C 524.491 32.309, 523.970 44.630, 523.464 76.008 C 522.821 115.800, 522.598 119.883, 520.834 124 C 519.774 126.475, 517.816 129.299, 516.483 130.275 C 511.270 134.091, 499.226 134.052, 494.070 130.203 C 492.732 129.204, 490.706 126.612, 489.569 124.443 C 487.624 120.737, 487.453 118.159, 486.721 81.500 C 486.221 56.438, 485.535 41.476, 484.802 39.633 C 484.174 38.057, 481.870 35.469, 479.680 33.883 C 475.970 31.196, 475.066 31, 466.369 31 C 457.503 31, 457.010 31.113, 456.468 33.270 M 579.681 32.250 C 578.106 33.407, 577.998 38.041, 578.239 94.500 L 578.500 155.500 591.862 155.780 C 600.861 155.968, 605.677 155.683, 606.612 154.907 C 607.687 154.015, 608.003 150.227, 608.014 138.128 C 608.021 129.532, 608.285 121.538, 608.601 120.362 C 609.120 118.427, 610.090 118.163, 618.837 117.574 C 631.264 116.738, 637.239 115.473, 643.787 112.292 C 659.557 104.632, 667.143 87.297, 664.235 65.565 C 662.919 55.728, 660.552 50.574, 654.264 43.851 C 643.809 32.674, 637.451 31, 605.444 31 C 587.769 31, 580.931 31.332, 579.681 32.250 M 692.500 32.862 C 689.750 33.794, 685.977 35.375, 684.114 36.374 L 680.729 38.192 681.306 54.846 C 682.280 82.979, 683.988 112.345, 684.835 115.500 L 685.640 118.500 695.083 118.783 C 701.626 118.980, 705.033 118.673, 706.174 117.783 C 707.499 116.752, 708.035 113.257, 708.902 100 C 709.496 90.925, 710.529 76.975, 711.198 69 C 711.868 61.025, 712.434 49.325, 712.458 43 L 712.500 31.500 705 31.333 C 700.176 31.226, 695.716 31.771, 692.500 32.862 M 396.774 41.750 C 393.909 44.779, 392.508 49.282, 391.481 58.750 L 390.804 65 384.961 65 C 381.747 65, 378.821 65.481, 378.458 66.068 C 377.265 67.998, 376.771 78.428, 377.703 82 C 378.596 85.421, 378.750 85.511, 384.558 86 L 390.500 86.500 391.652 112.500 C 392.286 126.800, 393.264 140.242, 393.825 142.372 C 395.124 147.307, 400.159 152.513, 405.666 154.616 C 409.150 155.947, 412.602 156.173, 423.908 155.813 C 433.334 155.512, 438.362 154.944, 439.426 154.061 C 441.458 152.375, 441.570 141.300, 439.602 136.591 C 438.249 133.351, 437.998 133.233, 431.590 132.825 C 421.458 132.180, 421.689 132.722, 421.178 108.408 C 420.824 91.615, 421 87.614, 422.122 86.904 C 422.880 86.423, 427.449 86.024, 432.275 86.015 C 440.768 86, 441.081 85.918, 442.025 83.435 C 443.130 80.527, 443.307 72.787, 442.375 68.125 L 441.750 65 431.992 65 C 420.395 65, 421.034 65.888, 421.014 49.750 L 421 39 410.187 39 C 399.688 39, 399.299 39.080, 396.774 41.750 M 608 73.930 L 608 94.047 616.250 93.427 C 625.585 92.725, 628.581 91.215, 631.244 85.871 C 635.368 77.593, 634.234 64.388, 628.944 59.098 C 626.056 56.210, 624.848 55.852, 613.250 54.448 L 608 53.812 608 73.930 M 332.500 62.652 C 321.048 64.508, 312.274 70.533, 307.966 79.500 C 305.264 85.123, 305.237 98.583, 307.916 103.835 C 311.853 111.552, 318.270 116.048, 335.329 123.042 C 343.878 126.548, 346.110 129.058, 344.068 132.874 C 342.917 135.024, 340.663 135.430, 332 135.049 C 327.863 134.867, 319.320 132.276, 316.527 130.356 C 312.622 127.672, 310.241 128.648, 307.045 134.245 C 305.397 137.130, 303.750 141.485, 303.384 143.923 C 302.543 149.534, 303.795 150.656, 315.161 154.485 C 326.084 158.165, 342.224 159.064, 351.919 156.534 C 367.774 152.394, 377.210 140.011, 375.695 125.330 C 374.295 111.766, 365.724 103.664, 344.175 95.532 C 339.156 93.638, 336.596 92.096, 336.043 90.634 C 334.980 87.822, 336.462 85.173, 339.527 84.404 C 342.340 83.698, 354.457 86.433, 360.655 89.173 C 365.598 91.358, 366.776 91.030, 369.777 86.633 C 373.789 80.756, 375.369 71.381, 372.719 69.181 C 372.014 68.596, 367.401 66.948, 362.469 65.517 C 353.646 62.959, 339.154 61.573, 332.500 62.652 M 254.500 64.831 L 250.500 65.500 250.500 75.468 L 250.500 85.436 254.347 86.515 C 256.463 87.109, 258.703 88.473, 259.327 89.547 C 260.081 90.847, 260.583 101.866, 260.830 122.500 C 261.057 141.576, 261.593 153.981, 262.222 154.750 C 263.624 156.464, 288.092 156.508, 289.800 154.800 C 291.371 153.229, 291.496 86.412, 289.942 79.164 C 288.847 74.061, 285.656 69.693, 280.689 66.498 C 277.627 64.529, 262.184 63.546, 254.500 64.831 M 130.500 80.104 C 124.450 82.255, 115 85.574, 109.500 87.481 C 104 89.388, 91.625 93.694, 82 97.050 C 72.375 100.405, 61.350 104.213, 57.500 105.512 C 53.650 106.811, 42.625 110.633, 33 114.005 C 23.375 117.376, 13.362 120.797, 10.750 121.606 C 8.137 122.415, 6 123.468, 6 123.945 C 6 124.422, 7.913 125.486, 10.250 126.310 C 35.318 135.146, 56.777 142.625, 62.500 144.521 C 66.350 145.797, 75.350 148.882, 82.500 151.378 C 89.650 153.873, 103.150 158.581, 112.500 161.840 C 121.850 165.099, 132.342 168.764, 135.816 169.983 C 139.290 171.203, 142.336 171.997, 142.586 171.747 C 143.385 170.949, 143.072 76.520, 142.270 76.354 C 141.847 76.266, 136.550 77.954, 130.500 80.104 M 686.625 130.469 C 684.493 131.229, 682.246 132.354, 681.630 132.970 C 679.957 134.643, 679.659 148.992, 681.235 152 C 683.108 155.574, 692.443 158.425, 699.419 157.553 C 707.419 156.554, 710.715 154.085, 711.558 148.461 C 712.392 142.903, 711.520 134.332, 709.926 132.411 C 707.138 129.052, 693.735 127.935, 686.625 130.469" stroke="none" fill="#040404" fill-rule="evenodd"/><path d="M 4 51 C 4 89.404, 4.257 99, 5.284 99 C 5.990 99, 11.636 97.207, 17.831 95.016 C 24.026 92.825, 33.910 89.424, 39.797 87.457 C 45.684 85.491, 51.400 83.477, 52.500 82.982 C 53.600 82.486, 57.200 81.199, 60.500 80.121 C 63.800 79.043, 74.375 75.403, 84 72.032 C 93.625 68.661, 105.325 64.605, 110 63.017 C 132.132 55.501, 141.495 52.015, 141.771 51.187 C 142.052 50.343, 128.501 45, 126.079 45 C 125.471 45, 124.191 44.555, 123.236 44.011 C 121.428 42.980, 107.861 38.168, 97.500 34.881 C 94.200 33.835, 90.600 32.560, 89.500 32.048 C 88.400 31.537, 82.550 29.465, 76.500 27.444 C 70.450 25.424, 59.875 21.749, 53 19.279 C 46.125 16.809, 39.150 14.428, 37.500 13.988 C 35.850 13.548, 28.048 10.896, 20.162 8.094 C 12.276 5.292, 5.414 3, 4.912 3 C 4.375 3, 4 22.753, 4 51" stroke="none" fill="#1474fc" fill-rule="evenodd"/></svg>